<svg width="70" height="27" viewBox="0 0 70 27" fill="none" xmlns="http://www.w3.org/2000/svg">
<path d="M9.94 9.15606V5.32006H0.84V5.74589e-05H25.76V5.32006H16.66V9.15606L26.6 26.2081H19.18L13.3 15.0641L7.42 26.2081H0L9.94 9.15606ZM27.16 5.74589e-05H33.32V26.2081H27.16V5.74589e-05ZM37.3989 15.6241C36.7269 15.6241 36.1856 15.4187 35.7749 15.0081C35.3642 14.5974 35.1589 14.0561 35.1589 13.3841V5.74589e-05H60.6389V5.04006H41.3189V10.1081C41.3189 10.2387 41.3562 10.3414 41.4309 10.4161C41.5056 10.4907 41.6082 10.5281 41.7389 10.5281H60.9189V15.6241H37.3989ZM61.7589 5.74589e-05H67.9189V5.40406H69.8789V11.0041H67.9189V19.2641H61.7589V5.74589e-05ZM38.5189 26.2081C37.8469 26.2081 37.3056 26.0027 36.8949 25.5921C36.4842 25.1814 36.2789 24.6401 36.2789 23.9681V16.6881H42.4389V20.3281C42.4389 20.4961 42.4856 20.6361 42.5789 20.7481C42.6909 20.8414 42.8309 20.8881 42.9989 20.8881H68.0589V26.2081H38.5189Z" fill="#255CF5"/>
</svg>
